<?xml version="1.0" encoding="iso-8859-1"?>
<!-- Generator: Adobe Illustrator 19.0.0, SVG Export Plug-In . SVG Version: 6.00 Build 0)  -->
<svg version="1.1" id="Layer_1" xmlns="http://www.w3.org/2000/svg" xmlns:xlink="http://www.w3.org/1999/xlink" x="0px" y="0px"
	 viewBox="0 0 511.999 511.999" style="enable-background:new 0 0 511.999 511.999;" xml:space="preserve">
<g>
	<g>
		<path d="M433.068,218.796H323.757V86.098C323.757,38.623,285.134,0,237.658,0H135.566H92.38C44.906,0,6.283,38.623,6.283,86.098
			v140.796v64.548v90.98c0,4.472,3.625,8.097,8.097,8.097s8.097-3.625,8.097-8.097v-82.883h109.265
			c0.607,0.392,1.218,0.777,1.816,1.181c0.227,0.153,0.457,0.302,0.683,0.457c20.356,13.941,35.735,34.199,43.588,57.566
			c0.029,0.103,0.047,0.207,0.081,0.309c3.83,11.534,5.815,23.723,5.815,35.878v100.875H22.478V414.81
			c0-4.473-3.625-8.097-8.097-8.097s-8.097,3.624-8.097,8.097v89.092c0,4.473,3.625,8.097,8.097,8.097h177.444h218.804h63.684
			c4.472,0,8.097-3.624,8.097-8.097v-57.646c0-4.473-3.625-8.097-8.097-8.097c-4.472,0-8.097,3.624-8.097,8.097v49.548h-47.489
			V356.307c0-40.231-32.731-72.962-72.962-72.962h-22.006v-1.973h28.899c23.485,0,46.716,7.441,65.825,21.078
			c16.249,11.598,29.348,27.457,37.614,45.631c6.673,14.675,10.121,30.731,10.121,46.849v18.937c0,4.472,3.625,8.097,8.097,8.097
			c4.472,0,8.097-3.625,8.097-8.097v-18.937c0-37.684-16.154-71.664-41.895-95.391h57.103c4.472,0,8.097-3.624,8.097-8.097
			C505.714,251.386,473.124,218.796,433.068,218.796z M22.478,86.098c0-35.98,27.327-65.699,62.314-69.494
			c-0.158,0.116-0.311,0.237-0.469,0.353c-0.19,0.141-0.378,0.285-0.566,0.428c-21.127,15.994-34.289,41.97-34.289,68.713v43.954
			c0,0.28,0.014,0.556,0.042,0.828c0.412,4.054,3.987,7.269,8.055,7.269c4.096,0,7.642-3.199,8.055-7.269
			c0.027-0.272,0.042-0.548,0.042-0.828V86.098c0-38.545,31.358-69.903,69.902-69.903h102.093c38.545,0,69.903,31.358,69.903,69.903
			v140.796v46.381v10.07c0,0-84.775,0-84.785,0c0.036,0-1.497-8.751-1.677-9.475c-5.026-20.24-19.195-37.773-37.756-47.211
			c-10.098-5.134-21.435-7.862-32.763-7.862H65.664v-56.356c0-4.473-3.625-8.097-8.097-8.097s-8.097,3.624-8.097,8.097v56.356
			H22.478V86.098z M134.141,283.344H22.478v-48.353h35.089c0,0,93.009,0,93.014,0c20.796,0,40.754,12.217,50.221,30.726
			c2.782,5.438,4.704,11.32,5.606,17.364c0.013,0.087,0.022,0.176,0.033,0.263H134.141z M402.53,495.805L402.53,495.805H199.92
			V394.93c0-10.266-1.209-20.541-3.598-30.526H402.53V495.805z M345.763,299.539c10.763,0,21.456,3.207,30.543,8.948
			c8.539,5.395,15.412,13.179,20.052,22.116c2.811,5.414,4.639,11.294,5.548,17.321c0.014,0.094,0.023,0.19,0.037,0.285H191.3
			c-7.088-18.462-18.355-35.107-33.126-48.669h56.953h100.532H345.763z M418.893,283.344c-19.925-11.85-43.06-18.167-66.238-18.167
			h-28.899v-30.186h109.311c28.378,0,51.932,21.049,55.872,48.353H418.893z"/>
	</g>
</g>
<g>
</g>
<g>
</g>
<g>
</g>
<g>
</g>
<g>
</g>
<g>
</g>
<g>
</g>
<g>
</g>
<g>
</g>
<g>
</g>
<g>
</g>
<g>
</g>
<g>
</g>
<g>
</g>
<g>
</g>
</svg>
